<svg width="512" height="512" viewBox="0 0 512 512" fill="none" xmlns="http://www.w3.org/2000/svg">
  <!-- Background -->
  <rect width="512" height="512" fill="white"/>
  
  <!-- Left chat bubble -->
  <path d="M140 180 C140 150 165 125 195 125 L265 125 C295 125 320 150 320 180 L320 260 C320 290 295 315 265 315 L210 315 L170 345 L170 315 L195 315 C165 315 140 290 140 260 Z" fill="#1B4D5C" stroke="#1B4D5C" stroke-width="4"/>
  
  <!-- Pink dots in left bubble -->
  <circle cx="195" cy="205" r="10" fill="#E91E63"/>
  <circle cx="230" cy="205" r="10" fill="#E91E63"/>
  <circle cx="265" cy="205" r="10" fill="#E91E63"/>
  
  <!-- Right chat bubble -->
  <path d="M372 230 C372 200 347 175 317 175 L247 175 C217 175 192 200 192 230 L192 310 C192 340 217 365 247 365 L302 365 L342 395 L342 365 L317 365 C347 365 372 340 372 310 Z" fill="#1B4D5C" stroke="#1B4D5C" stroke-width="4"/>
  
  <!-- Blue dots in right bubble -->
  <circle cx="247" cy="270" r="10" fill="#00B4D8"/>
  <circle cx="282" cy="270" r="10" fill="#00B4D8"/>
  <circle cx="317" cy="270" r="10" fill="#00B4D8"/>
</svg>