<svg width="512" height="512" viewBox="0 0 512 512" fill="none" xmlns="http://www.w3.org/2000/svg">
  <rect width="512" height="512" fill="white" rx="80"/>
  
  <!-- Left bubble -->
  <path d="M170 130C170 85 130 85 130 130C130 170 130 210 130 250C130 270 110 270 110 250C110 230 110 210 110 190C110 170 130 150 150 130C170 110 210 110 230 130C250 150 270 170 270 210C270 230 270 250 270 270C270 290 250 310 230 310C210 310 190 310 170 310C150 310 130 290 130 270L150 270C150 280 160 290 170 290C190 290 210 290 230 290C240 290 250 280 250 270C250 250 250 230 250 210C250 175 235 155 210 140C195 130 185 130 170 130Z" fill="#0A3D4A"/>
  
  <circle cx="162" cy="175" r="12" fill="#E91E8C"/>
  <circle cx="198" cy="175" r="12" fill="#E91E8C"/>
  <circle cx="234" cy="175" r="12" fill="#E91E8C"/>
  
  <rect x="270" y="165" width="34" height="25" fill="#00B4D8"/>
  <rect x="270" y="285" width="34" height="25" fill="#E91E8C"/>
  
  <!-- Right bubble -->
  <path d="M342 170C342 130 382 130 382 170C382 210 382 250 382 290C382 310 402 310 402 290C402 270 402 250 402 230C402 210 382 190 362 170C342 150 302 150 282 170C262 190 242 210 242 250C242 270 242 290 242 310C242 330 262 350 282 350C302 350 322 350 342 350C362 350 382 330 382 310L362 310C362 320 352 330 342 330C322 330 302 330 282 330C272 330 262 320 262 310C262 290 262 270 262 250C262 215 277 195 302 180C317 170 327 170 342 170Z" fill="#0A3D4A"/>
  
  <circle cx="290" cy="280" r="12" fill="#00B4D8"/>
  <circle cx="326" cy="280" r="12" fill="#00B4D8"/>
  <circle cx="362" cy="280" r="12" fill="#00B4D8"/>
</svg>
