<svg width="1200" height="1200" viewBox="0 0 1200 1200" fill="none" xmlns="http://www.w3.org/2000/svg">
  <rect width="1200" height="1200" fill="white"/>
  
  <!-- Left bubble (pink dots) -->
  <path d="M400 300C400 200 300 200 300 300C300 400 300 500 300 600C300 650 250 650 250 600C250 550 250 500 250 450C250 400 300 350 350 300C400 250 500 250 550 300C600 350 650 400 650 500C650 550 650 600 650 650C650 700 600 750 550 750C500 750 450 750 400 750C350 750 300 700 300 650L350 650C350 680 370 700 400 700C450 700 500 700 550 700C580 700 600 680 600 650C600 600 600 550 600 500C600 420 560 370 500 330C460 300 440 300 400 300Z" fill="#0A3D4A" stroke="#0A3D4A" stroke-width="50" stroke-linejoin="round"/>
  
  <!-- Pink dots -->
  <circle cx="380" cy="420" r="30" fill="#E91E8C"/>
  <circle cx="470" cy="420" r="30" fill="#E91E8C"/>
  <circle cx="560" cy="420" r="30" fill="#E91E8C"/>
  
  <!-- Connection segments -->
  <rect x="650" y="400" width="80" height="60" fill="#00B4D8"/>
  <rect x="650" y="680" width="80" height="60" fill="#E91E8C"/>
  
  <!-- Right bubble (blue dots) -->
  <path d="M800 400C800 300 900 300 900 400C900 500 900 600 900 700C900 750 950 750 950 700C950 650 950 600 950 550C950 500 900 450 850 400C800 350 700 350 650 400C600 450 550 500 550 600C550 650 550 700 550 750C550 800 600 850 650 850C700 850 750 850 800 850C850 850 900 800 900 750L850 750C850 780 830 800 800 800C750 800 700 800 650 800C620 800 600 780 600 750C600 700 600 650 600 600C600 520 640 470 700 430C740 400 760 400 800 400Z" fill="#0A3D4A" stroke="#0A3D4A" stroke-width="50" stroke-linejoin="round"/>
  
  <!-- Blue dots -->
  <circle cx="680" cy="670" r="30" fill="#00B4D8"/>
  <circle cx="770" cy="670" r="30" fill="#00B4D8"/>
  <circle cx="860" cy="670" r="30" fill="#00B4D8"/>
</svg>
